# xmcd CD database file
#
# Track frame offsets:
#	150
#	29380
#	63775
#	88887
#	132050
#
# Disc length: 2143 seconds
#
# Revision: 1
# Processed by: cddbd v1.4PL0 Copyright (c) Steve Scherf et al.
# Submitted via: NeoAudio 9.9.9
#
DISCID=39085d05
DTITLE=Lou Donaldson - The Midnight Creeper
DYEAR=1968
DGENRE=Jazz
TTITLE0=Midnight Creeper
TTITLE1=Love Power
TTITLE2=Elizabeth
TTITLE3=Bag of Jewels
TTITLE4=Dapper Dan
EXTD=YEAR: 1968
EXTT0=
EXTT1=
EXTT2=
EXTT3=
EXTT4=
PLAYORDER=
